<mxfile host="app.diagrams.net" modified="2023-09-21T10:27:30.059Z" agent="Mozilla/5.0 (Windows NT 10.0; Win64; x64) AppleWebKit/537.36 (KHTML, like Gecko) Chrome/117.0.0.0 Safari/537.36" etag="NNbFfw_2y2MrQ4log0UR" version="21.7.5" type="device">
  <diagram name="Page-1" id="_eV07aeih_Cdav96N34I">
    <mxGraphModel dx="925" dy="484" grid="1" gridSize="10" guides="1" tooltips="1" connect="1" arrows="1" fold="1" page="1" pageScale="1" pageWidth="1169" pageHeight="827" math="0" shadow="0">
      <root>
        <mxCell id="0" />
        <mxCell id="1" parent="0" />
        <mxCell id="eCmqdc9u76N8T_xmhwrJ-1" value="" style="endArrow=none;dashed=1;html=1;rounded=0;strokeWidth=12;dashPattern=1 1;" edge="1" parent="1">
          <mxGeometry width="50" height="50" relative="1" as="geometry">
            <mxPoint x="240" y="240" as="sourcePoint" />
            <mxPoint x="240" y="80" as="targetPoint" />
          </mxGeometry>
        </mxCell>
        <mxCell id="eCmqdc9u76N8T_xmhwrJ-2" value="" style="endArrow=none;dashed=1;html=1;rounded=0;strokeWidth=12;dashPattern=1 1;" edge="1" parent="1">
          <mxGeometry width="50" height="50" relative="1" as="geometry">
            <mxPoint x="220" y="220" as="sourcePoint" />
            <mxPoint x="380" y="220" as="targetPoint" />
          </mxGeometry>
        </mxCell>
        <mxCell id="eCmqdc9u76N8T_xmhwrJ-3" value="" style="endArrow=none;html=1;rounded=0;fillColor=#dae8fc;strokeColor=#90BEFF;strokeWidth=12;" edge="1" parent="1">
          <mxGeometry width="50" height="50" relative="1" as="geometry">
            <mxPoint x="220" y="220" as="sourcePoint" />
            <mxPoint x="250" y="220" as="targetPoint" />
          </mxGeometry>
        </mxCell>
        <mxCell id="eCmqdc9u76N8T_xmhwrJ-4" value="" style="endArrow=none;html=1;rounded=0;fillColor=#dae8fc;strokeColor=#90BEFF;strokeWidth=12;" edge="1" parent="1">
          <mxGeometry width="50" height="50" relative="1" as="geometry">
            <mxPoint x="250" y="220" as="sourcePoint" />
            <mxPoint x="250" y="100" as="targetPoint" />
          </mxGeometry>
        </mxCell>
        <mxCell id="eCmqdc9u76N8T_xmhwrJ-5" value="" style="endArrow=none;html=1;rounded=0;fillColor=#dae8fc;strokeColor=#90BEFF;strokeWidth=12;" edge="1" parent="1">
          <mxGeometry width="50" height="50" relative="1" as="geometry">
            <mxPoint x="250" y="100" as="sourcePoint" />
            <mxPoint x="380" y="100" as="targetPoint" />
          </mxGeometry>
        </mxCell>
        <mxCell id="eCmqdc9u76N8T_xmhwrJ-6" value="" style="endArrow=none;html=1;rounded=0;fillColor=#f8cecc;strokeColor=#ff5c57;strokeWidth=12;" edge="1" parent="1">
          <mxGeometry width="50" height="50" relative="1" as="geometry">
            <mxPoint x="250" y="220" as="sourcePoint" />
            <mxPoint x="270" y="220" as="targetPoint" />
          </mxGeometry>
        </mxCell>
        <mxCell id="eCmqdc9u76N8T_xmhwrJ-8" value="" style="curved=1;endArrow=none;html=1;rounded=0;fillColor=#f8cecc;strokeColor=#ff5c57;endFill=0;strokeWidth=12;" edge="1" parent="1">
          <mxGeometry width="50" height="50" relative="1" as="geometry">
            <mxPoint x="270" y="220" as="sourcePoint" />
            <mxPoint x="380" y="110" as="targetPoint" />
            <Array as="points">
              <mxPoint x="270" y="120" />
            </Array>
          </mxGeometry>
        </mxCell>
      </root>
    </mxGraphModel>
  </diagram>
</mxfile>
